<mxfile host="app.diagrams.net" modified="2023-08-23T12:58:39.238Z" agent="Mozilla/5.0 (Macintosh; Intel Mac OS X 10_15_7) AppleWebKit/605.1.15 (KHTML, like Gecko) Version/16.5.2 Safari/605.1.15" etag="lG6AAyMjs7KxvD7oyJjh" version="21.6.9" type="device">
  <diagram name="Page-1" id="iVzzOKdkcM-kXvhf8pWB">
    <mxGraphModel dx="1144" dy="807" grid="1" gridSize="10" guides="1" tooltips="1" connect="1" arrows="1" fold="1" page="1" pageScale="1" pageWidth="827" pageHeight="1169" math="0" shadow="0">
      <root>
        <mxCell id="0" />
        <mxCell id="1" parent="0" />
        <mxCell id="vGj0bNvby1lZuq-FcSNj-1" value="" style="rounded=1;arcSize=2;dashed=0;fillColor=none;gradientColor=none;strokeWidth=2;" vertex="1" parent="1">
          <mxGeometry x="80" y="320" width="680" height="400" as="geometry" />
        </mxCell>
        <mxCell id="vGj0bNvby1lZuq-FcSNj-2" value="" style="dashed=0;html=1;shape=mxgraph.aws3.cloud;fillColor=#F58536;gradientColor=none;dashed=0;" vertex="1" parent="1">
          <mxGeometry x="101" y="303" width="52" height="36" as="geometry" />
        </mxCell>
        <mxCell id="vGj0bNvby1lZuq-FcSNj-3" value="VPC" style="points=[[0,0],[0.25,0],[0.5,0],[0.75,0],[1,0],[1,0.25],[1,0.5],[1,0.75],[1,1],[0.75,1],[0.5,1],[0.25,1],[0,1],[0,0.75],[0,0.5],[0,0.25]];outlineConnect=0;gradientColor=none;html=1;whiteSpace=wrap;fontSize=12;fontStyle=0;container=1;pointerEvents=0;collapsible=0;recursiveResize=0;shape=mxgraph.aws4.group;grIcon=mxgraph.aws4.group_vpc;strokeColor=#248814;fillColor=none;verticalAlign=top;align=left;spacingLeft=30;fontColor=#AAB7B8;dashed=0;" vertex="1" parent="1">
          <mxGeometry x="100" y="350" width="650" height="360" as="geometry" />
        </mxCell>
        <mxCell id="vGj0bNvby1lZuq-FcSNj-4" value="sa-east-1a" style="sketch=0;outlineConnect=0;gradientColor=none;html=1;whiteSpace=wrap;fontSize=12;fontStyle=0;shape=mxgraph.aws4.group;grIcon=mxgraph.aws4.group_availability_zone;strokeColor=#545B64;fillColor=none;verticalAlign=top;align=left;spacingLeft=30;fontColor=#545B64;dashed=1;" vertex="1" parent="vGj0bNvby1lZuq-FcSNj-3">
          <mxGeometry x="30" y="30" width="260" height="300" as="geometry" />
        </mxCell>
        <mxCell id="vGj0bNvby1lZuq-FcSNj-5" value="sa-east-1b" style="sketch=0;outlineConnect=0;gradientColor=none;html=1;whiteSpace=wrap;fontSize=12;fontStyle=0;shape=mxgraph.aws4.group;grIcon=mxgraph.aws4.group_availability_zone;strokeColor=#545B64;fillColor=none;verticalAlign=top;align=left;spacingLeft=30;fontColor=#545B64;dashed=1;" vertex="1" parent="vGj0bNvby1lZuq-FcSNj-3">
          <mxGeometry x="349" y="30" width="270" height="300" as="geometry" />
        </mxCell>
        <mxCell id="vGj0bNvby1lZuq-FcSNj-6" value="Public subnet" style="points=[[0,0],[0.25,0],[0.5,0],[0.75,0],[1,0],[1,0.25],[1,0.5],[1,0.75],[1,1],[0.75,1],[0.5,1],[0.25,1],[0,1],[0,0.75],[0,0.5],[0,0.25]];outlineConnect=0;gradientColor=none;html=1;whiteSpace=wrap;fontSize=12;fontStyle=0;container=1;pointerEvents=0;collapsible=0;recursiveResize=0;shape=mxgraph.aws4.group;grIcon=mxgraph.aws4.group_security_group;grStroke=0;strokeColor=#248814;fillColor=#E9F3E6;verticalAlign=top;align=left;spacingLeft=30;fontColor=#248814;dashed=0;" vertex="1" parent="vGj0bNvby1lZuq-FcSNj-3">
          <mxGeometry x="50" y="60" width="210" height="110" as="geometry" />
        </mxCell>
        <mxCell id="vGj0bNvby1lZuq-FcSNj-7" value="Public subnet" style="points=[[0,0],[0.25,0],[0.5,0],[0.75,0],[1,0],[1,0.25],[1,0.5],[1,0.75],[1,1],[0.75,1],[0.5,1],[0.25,1],[0,1],[0,0.75],[0,0.5],[0,0.25]];outlineConnect=0;gradientColor=none;html=1;whiteSpace=wrap;fontSize=12;fontStyle=0;container=1;pointerEvents=0;collapsible=0;recursiveResize=0;shape=mxgraph.aws4.group;grIcon=mxgraph.aws4.group_security_group;grStroke=0;strokeColor=#248814;fillColor=#E9F3E6;verticalAlign=top;align=left;spacingLeft=30;fontColor=#248814;dashed=0;" vertex="1" parent="vGj0bNvby1lZuq-FcSNj-3">
          <mxGeometry x="380" y="60" width="210" height="110" as="geometry" />
        </mxCell>
        <mxCell id="vGj0bNvby1lZuq-FcSNj-20" value="" style="rounded=1;arcSize=5;dashed=1;fillColor=none;gradientColor=none;dashPattern=8 3 1 3;strokeWidth=2;" vertex="1" parent="vGj0bNvby1lZuq-FcSNj-7">
          <mxGeometry x="-166" y="16" width="230" height="70" as="geometry" />
        </mxCell>
        <mxCell id="vGj0bNvby1lZuq-FcSNj-12" value="" style="sketch=0;outlineConnect=0;fontColor=#232F3E;gradientColor=none;fillColor=#4D27AA;strokeColor=none;dashed=0;verticalLabelPosition=bottom;verticalAlign=top;align=center;html=1;fontSize=12;fontStyle=0;aspect=fixed;pointerEvents=1;shape=mxgraph.aws4.application_load_balancer;" vertex="1" parent="vGj0bNvby1lZuq-FcSNj-7">
          <mxGeometry x="-78" y="19" width="37" height="37" as="geometry" />
        </mxCell>
        <mxCell id="vGj0bNvby1lZuq-FcSNj-9" value="Private subnet" style="points=[[0,0],[0.25,0],[0.5,0],[0.75,0],[1,0],[1,0.25],[1,0.5],[1,0.75],[1,1],[0.75,1],[0.5,1],[0.25,1],[0,1],[0,0.75],[0,0.5],[0,0.25]];outlineConnect=0;gradientColor=none;html=1;whiteSpace=wrap;fontSize=12;fontStyle=0;container=1;pointerEvents=0;collapsible=0;recursiveResize=0;shape=mxgraph.aws4.group;grIcon=mxgraph.aws4.group_security_group;grStroke=0;strokeColor=#147EBA;fillColor=#E6F2F8;verticalAlign=top;align=left;spacingLeft=30;fontColor=#147EBA;dashed=0;" vertex="1" parent="vGj0bNvby1lZuq-FcSNj-3">
          <mxGeometry x="380" y="180" width="210" height="130" as="geometry" />
        </mxCell>
        <mxCell id="vGj0bNvby1lZuq-FcSNj-27" value="EC2 Worker Node-2" style="points=[[0,0],[0.25,0],[0.5,0],[0.75,0],[1,0],[1,0.25],[1,0.5],[1,0.75],[1,1],[0.75,1],[0.5,1],[0.25,1],[0,1],[0,0.75],[0,0.5],[0,0.25]];outlineConnect=0;gradientColor=none;html=1;whiteSpace=wrap;fontSize=12;fontStyle=0;container=1;pointerEvents=0;collapsible=0;recursiveResize=0;shape=mxgraph.aws4.group;grIcon=mxgraph.aws4.group_ec2_instance_contents;strokeColor=#D86613;fillColor=none;verticalAlign=top;align=left;spacingLeft=30;fontColor=#D86613;dashed=0;" vertex="1" parent="vGj0bNvby1lZuq-FcSNj-9">
          <mxGeometry x="35.5" y="22" width="145" height="100" as="geometry" />
        </mxCell>
        <mxCell id="vGj0bNvby1lZuq-FcSNj-10" value="" style="sketch=0;outlineConnect=0;fontColor=#232F3E;gradientColor=none;fillColor=#4D27AA;strokeColor=none;dashed=0;verticalLabelPosition=bottom;verticalAlign=top;align=center;html=1;fontSize=12;fontStyle=0;aspect=fixed;pointerEvents=1;shape=mxgraph.aws4.nat_gateway;" vertex="1" parent="vGj0bNvby1lZuq-FcSNj-3">
          <mxGeometry x="80" y="100" width="40" height="40" as="geometry" />
        </mxCell>
        <mxCell id="vGj0bNvby1lZuq-FcSNj-17" value="" style="rounded=0;whiteSpace=wrap;html=1;fillColor=#fff2cc;strokeColor=#d6b656;gradientColor=#ffd966;" vertex="1" parent="vGj0bNvby1lZuq-FcSNj-3">
          <mxGeometry x="251" y="120" width="150" height="20" as="geometry" />
        </mxCell>
        <mxCell id="vGj0bNvby1lZuq-FcSNj-16" value="ALB Service Ingress" style="text;html=1;strokeColor=none;fillColor=none;align=center;verticalAlign=middle;whiteSpace=wrap;rounded=0;fontFamily=Comic Sans MS;" vertex="1" parent="vGj0bNvby1lZuq-FcSNj-3">
          <mxGeometry x="251" y="120" width="140" height="20" as="geometry" />
        </mxCell>
        <mxCell id="vGj0bNvby1lZuq-FcSNj-18" value="" style="sketch=0;aspect=fixed;pointerEvents=1;shadow=0;dashed=0;html=1;strokeColor=none;labelPosition=center;verticalLabelPosition=bottom;verticalAlign=top;align=center;fillColor=#00188D;shape=mxgraph.azure.load_balancer_generic" vertex="1" parent="vGj0bNvby1lZuq-FcSNj-3">
          <mxGeometry x="308.9" y="136" width="22.2" height="30" as="geometry" />
        </mxCell>
        <mxCell id="vGj0bNvby1lZuq-FcSNj-22" value="&lt;font face=&quot;Comic Sans MS&quot; style=&quot;font-size: 21px;&quot;&gt;/*&lt;/font&gt;" style="rounded=0;whiteSpace=wrap;html=1;fillColor=#e6d0de;gradientColor=#d5739d;strokeColor=#996185;" vertex="1" parent="vGj0bNvby1lZuq-FcSNj-3">
          <mxGeometry x="301" y="168" width="40" height="20" as="geometry" />
        </mxCell>
        <mxCell id="vGj0bNvby1lZuq-FcSNj-8" value="Private subnet" style="points=[[0,0],[0.25,0],[0.5,0],[0.75,0],[1,0],[1,0.25],[1,0.5],[1,0.75],[1,1],[0.75,1],[0.5,1],[0.25,1],[0,1],[0,0.75],[0,0.5],[0,0.25]];outlineConnect=0;gradientColor=none;html=1;whiteSpace=wrap;fontSize=12;fontStyle=0;container=1;pointerEvents=0;collapsible=0;recursiveResize=0;shape=mxgraph.aws4.group;grIcon=mxgraph.aws4.group_security_group;grStroke=0;strokeColor=#147EBA;fillColor=#E6F2F8;verticalAlign=top;align=left;spacingLeft=30;fontColor=#147EBA;dashed=0;" vertex="1" parent="vGj0bNvby1lZuq-FcSNj-3">
          <mxGeometry x="40" y="180" width="220" height="130" as="geometry" />
        </mxCell>
        <mxCell id="vGj0bNvby1lZuq-FcSNj-26" value="EC2 Worker Node-1" style="points=[[0,0],[0.25,0],[0.5,0],[0.75,0],[1,0],[1,0.25],[1,0.5],[1,0.75],[1,1],[0.75,1],[0.5,1],[0.25,1],[0,1],[0,0.75],[0,0.5],[0,0.25]];outlineConnect=0;gradientColor=none;html=1;whiteSpace=wrap;fontSize=12;fontStyle=0;container=1;pointerEvents=0;collapsible=0;recursiveResize=0;shape=mxgraph.aws4.group;grIcon=mxgraph.aws4.group_ec2_instance_contents;strokeColor=#D86613;fillColor=none;verticalAlign=top;align=left;spacingLeft=30;fontColor=#D86613;dashed=0;" vertex="1" parent="vGj0bNvby1lZuq-FcSNj-8">
          <mxGeometry x="28" y="22" width="145" height="100" as="geometry" />
        </mxCell>
        <mxCell id="vGj0bNvby1lZuq-FcSNj-33" value="" style="endArrow=classic;startArrow=classic;html=1;rounded=0;" edge="1" parent="vGj0bNvby1lZuq-FcSNj-3" source="vGj0bNvby1lZuq-FcSNj-10">
          <mxGeometry width="50" height="50" relative="1" as="geometry">
            <mxPoint x="240" y="80" as="sourcePoint" />
            <mxPoint x="290" y="30" as="targetPoint" />
          </mxGeometry>
        </mxCell>
        <mxCell id="vGj0bNvby1lZuq-FcSNj-35" value="" style="endArrow=classic;startArrow=classic;html=1;rounded=0;" edge="1" parent="vGj0bNvby1lZuq-FcSNj-3" source="vGj0bNvby1lZuq-FcSNj-8" target="vGj0bNvby1lZuq-FcSNj-10">
          <mxGeometry width="50" height="50" relative="1" as="geometry">
            <mxPoint x="290" y="220" as="sourcePoint" />
            <mxPoint x="340" y="170" as="targetPoint" />
          </mxGeometry>
        </mxCell>
        <mxCell id="vGj0bNvby1lZuq-FcSNj-36" value="" style="endArrow=classic;startArrow=classic;html=1;rounded=0;" edge="1" parent="vGj0bNvby1lZuq-FcSNj-3" source="vGj0bNvby1lZuq-FcSNj-9" target="vGj0bNvby1lZuq-FcSNj-11">
          <mxGeometry width="50" height="50" relative="1" as="geometry">
            <mxPoint x="500" y="180" as="sourcePoint" />
            <mxPoint x="550" y="130" as="targetPoint" />
          </mxGeometry>
        </mxCell>
        <mxCell id="vGj0bNvby1lZuq-FcSNj-11" value="" style="sketch=0;outlineConnect=0;fontColor=#232F3E;gradientColor=none;fillColor=#4D27AA;strokeColor=none;dashed=0;verticalLabelPosition=bottom;verticalAlign=top;align=center;html=1;fontSize=12;fontStyle=0;aspect=fixed;pointerEvents=1;shape=mxgraph.aws4.nat_gateway;" vertex="1" parent="vGj0bNvby1lZuq-FcSNj-3">
          <mxGeometry x="527" y="100" width="40" height="40" as="geometry" />
        </mxCell>
        <mxCell id="vGj0bNvby1lZuq-FcSNj-38" value="" style="endArrow=blockThin;html=1;rounded=0;entryX=0.5;entryY=0;entryDx=0;entryDy=0;fillColor=#d5e8d4;gradientColor=#97d077;strokeColor=#82b366;strokeWidth=2;endFill=1;" edge="1" parent="vGj0bNvby1lZuq-FcSNj-3">
          <mxGeometry width="50" height="50" relative="1" as="geometry">
            <mxPoint x="321" y="190" as="sourcePoint" />
            <mxPoint x="321" y="228" as="targetPoint" />
          </mxGeometry>
        </mxCell>
        <mxCell id="vGj0bNvby1lZuq-FcSNj-28" value="" style="rounded=1;arcSize=5;dashed=1;fillColor=none;gradientColor=none;dashPattern=8 3 1 3;strokeWidth=2;" vertex="1" parent="vGj0bNvby1lZuq-FcSNj-3">
          <mxGeometry x="62.5" y="198" width="501.5" height="111" as="geometry" />
        </mxCell>
        <mxCell id="vGj0bNvby1lZuq-FcSNj-13" value="" style="sketch=0;points=[[0,0,0],[0.25,0,0],[0.5,0,0],[0.75,0,0],[1,0,0],[0,1,0],[0.25,1,0],[0.5,1,0],[0.75,1,0],[1,1,0],[0,0.25,0],[0,0.5,0],[0,0.75,0],[1,0.25,0],[1,0.5,0],[1,0.75,0]];outlineConnect=0;fontColor=#232F3E;gradientColor=#F78E04;gradientDirection=north;fillColor=#D05C17;strokeColor=#ffffff;dashed=0;verticalLabelPosition=bottom;verticalAlign=top;align=center;html=1;fontSize=12;fontStyle=0;aspect=fixed;shape=mxgraph.aws4.resourceIcon;resIcon=mxgraph.aws4.eks_cloud;" vertex="1" parent="1">
          <mxGeometry x="395" y="354" width="50" height="50" as="geometry" />
        </mxCell>
        <mxCell id="vGj0bNvby1lZuq-FcSNj-25" value="&lt;font style=&quot;font-size: 10px;&quot; face=&quot;Comic Sans MS&quot;&gt;nginx - app1/NodePort&lt;/font&gt;" style="rounded=0;whiteSpace=wrap;html=1;fillColor=#dae8fc;gradientColor=#7ea6e0;strokeColor=#6c8ebf;" vertex="1" parent="1">
          <mxGeometry x="280" y="578" width="290" height="14" as="geometry" />
        </mxCell>
        <mxCell id="vGj0bNvby1lZuq-FcSNj-34" value="" style="endArrow=classic;startArrow=classic;html=1;rounded=0;" edge="1" parent="1" target="vGj0bNvby1lZuq-FcSNj-11">
          <mxGeometry width="50" height="50" relative="1" as="geometry">
            <mxPoint x="445" y="379" as="sourcePoint" />
            <mxPoint x="615" y="290" as="targetPoint" />
          </mxGeometry>
        </mxCell>
        <mxCell id="vGj0bNvby1lZuq-FcSNj-39" value="" style="shape=card;whiteSpace=wrap;html=1;" vertex="1" parent="1">
          <mxGeometry x="580" y="575" width="78" height="72" as="geometry" />
        </mxCell>
        <mxCell id="vGj0bNvby1lZuq-FcSNj-29" value="" style="sketch=0;html=1;dashed=0;whitespace=wrap;fillColor=#2875E2;strokeColor=#ffffff;points=[[0.005,0.63,0],[0.1,0.2,0],[0.9,0.2,0],[0.5,0,0],[0.995,0.63,0],[0.72,0.99,0],[0.5,1,0],[0.28,0.99,0]];verticalLabelPosition=bottom;align=center;verticalAlign=top;shape=mxgraph.kubernetes.icon;prIcon=pod" vertex="1" parent="1">
          <mxGeometry x="603" y="591" width="46" height="37" as="geometry" />
        </mxCell>
        <mxCell id="vGj0bNvby1lZuq-FcSNj-31" value="deployment" style="text;html=1;strokeColor=none;fillColor=none;align=center;verticalAlign=middle;whiteSpace=wrap;rounded=0;fontFamily=Comic Sans MS;" vertex="1" parent="1">
          <mxGeometry x="575" y="622" width="100" height="30" as="geometry" />
        </mxCell>
        <mxCell id="vGj0bNvby1lZuq-FcSNj-32" value="pod-xzy1" style="text;html=1;strokeColor=none;fillColor=none;align=center;verticalAlign=middle;whiteSpace=wrap;rounded=0;fontFamily=Comic Sans MS;" vertex="1" parent="1">
          <mxGeometry x="580" y="570" width="100" height="30" as="geometry" />
        </mxCell>
        <mxCell id="vGj0bNvby1lZuq-FcSNj-41" value="" style="endArrow=blockThin;html=1;rounded=0;exitX=0.5;exitY=1;exitDx=0;exitDy=0;entryX=0;entryY=0;entryDx=0;entryDy=0;fillColor=#d5e8d4;gradientColor=#97d077;strokeColor=#82b366;strokeWidth=2;endFill=1;" edge="1" parent="1" source="vGj0bNvby1lZuq-FcSNj-25" target="vGj0bNvby1lZuq-FcSNj-31">
          <mxGeometry width="50" height="50" relative="1" as="geometry">
            <mxPoint x="410" y="760" as="sourcePoint" />
            <mxPoint x="460" y="710" as="targetPoint" />
          </mxGeometry>
        </mxCell>
      </root>
    </mxGraphModel>
  </diagram>
</mxfile>
